<svg width="210" height="70" viewBox="0 0 210 70" fill="none" xmlns="http://www.w3.org/2000/svg">
<path d="M63.056 14.6429C63.056 15.4652 62.8621 16.241 62.4742 16.9702C62.0863 17.6994 61.4657 18.2967 60.6124 18.7622C59.759 19.2121 58.6652 19.4371 57.3309 19.4371H54.3985V26H51.7455V9.82545H57.3309C58.5721 9.82545 59.6194 10.0427 60.4727 10.4771C61.3416 10.896 61.9855 11.4701 62.4044 12.1993C62.8388 12.9285 63.056 13.743 63.056 14.6429ZM57.3309 17.2727C58.3394 17.2727 59.0919 17.0478 59.5884 16.5978C60.0848 16.1324 60.3331 15.4807 60.3331 14.6429C60.3331 12.8742 59.3324 11.9898 57.3309 11.9898H54.3985V17.2727H57.3309ZM64.702 19.5302C64.702 18.2424 64.9658 17.1021 65.4933 16.1091C66.0363 15.1161 66.7655 14.3481 67.6809 13.8051C68.6118 13.2465 69.6358 12.9673 70.7529 12.9673C71.7614 12.9673 72.638 13.169 73.3827 13.5724C74.143 13.9602 74.7481 14.449 75.198 15.0385V13.1767H77.8744V26H75.198V24.0916C74.7481 24.6967 74.1352 25.201 73.3595 25.6044C72.5837 26.0078 71.6993 26.2095 70.7064 26.2095C69.6048 26.2095 68.5963 25.9302 67.6809 25.3716C66.7655 24.7976 66.0363 24.0063 65.4933 22.9978C64.9658 21.9738 64.702 20.8179 64.702 19.5302ZM75.198 19.5767C75.198 18.6924 75.0118 17.9244 74.6395 17.2727C74.2826 16.6211 73.8094 16.1246 73.2198 15.7833C72.6302 15.4419 71.9941 15.2713 71.3115 15.2713C70.6288 15.2713 69.9927 15.4419 69.4031 15.7833C68.8135 16.1091 68.3325 16.5978 67.9602 17.2495C67.6033 17.8856 67.4249 18.6458 67.4249 19.5302C67.4249 20.4145 67.6033 21.1903 67.9602 21.8575C68.3325 22.5246 68.8135 23.0366 69.4031 23.3935C70.0082 23.7348 70.6443 23.9055 71.3115 23.9055C71.9941 23.9055 72.6302 23.7348 73.2198 23.3935C73.8094 23.0521 74.2826 22.5556 74.6395 21.904C75.0118 21.2368 75.198 20.4611 75.198 19.5767ZM84.0122 15.0385C84.4001 14.3869 84.9121 13.8827 85.5482 13.5258C86.1998 13.1535 86.9678 12.9673 87.8522 12.9673V15.7135H87.1773C86.1378 15.7135 85.3465 15.9772 84.8035 16.5047C84.2759 17.0322 84.0122 17.9476 84.0122 19.2509V26H81.3591V13.1767H84.0122V15.0385ZM89.4065 19.5767C89.4065 18.2579 89.6703 17.1021 90.1978 16.1091C90.7408 15.1006 91.4856 14.3248 92.432 13.7818C93.3784 13.2388 94.4645 12.9673 95.6902 12.9673C97.2417 12.9673 98.5217 13.3396 99.5302 14.0844C100.554 14.8136 101.245 15.8608 101.601 17.2262H98.7389C98.5062 16.5901 98.1338 16.0936 97.6218 15.7367C97.1098 15.3799 96.4659 15.2015 95.6902 15.2015C94.6041 15.2015 93.7353 15.5893 93.0836 16.3651C92.4475 17.1253 92.1295 18.1959 92.1295 19.5767C92.1295 20.9576 92.4475 22.0359 93.0836 22.8116C93.7353 23.5874 94.6041 23.9753 95.6902 23.9753C97.2262 23.9753 98.2424 23.3004 98.7389 21.9505H101.601C101.229 23.2538 100.531 24.2933 99.5069 25.0691C98.4829 25.8293 97.2107 26.2095 95.6902 26.2095C94.4645 26.2095 93.3784 25.9379 92.432 25.3949C91.4856 24.8364 90.7408 24.0606 90.1978 23.0676C89.6703 22.0592 89.4065 20.8955 89.4065 19.5767ZM53.0953 46.4778C52.6143 46.4778 52.2109 46.3149 51.8851 45.9891C51.5593 45.6633 51.3964 45.2599 51.3964 44.7789C51.3964 44.2979 51.5593 43.8945 51.8851 43.5687C52.2109 43.2429 52.6143 43.08 53.0953 43.08C53.5607 43.08 53.9564 43.2429 54.2822 43.5687C54.608 43.8945 54.7709 44.2979 54.7709 44.7789C54.7709 45.2599 54.608 45.6633 54.2822 45.9891C53.9564 46.3149 53.5607 46.4778 53.0953 46.4778ZM54.3985 48.1767V61H51.7455V48.1767H54.3985ZM64.3516 47.9673C65.3601 47.9673 66.26 48.1767 67.0513 48.5956C67.8581 49.0145 68.4864 49.6352 68.9364 50.4575C69.3863 51.2798 69.6113 52.2727 69.6113 53.4364V61H66.9815V53.832C66.9815 52.6839 66.6944 51.8073 66.1204 51.2022C65.5463 50.5816 64.7628 50.2713 63.7698 50.2713C62.7768 50.2713 61.9856 50.5816 61.396 51.2022C60.8219 51.8073 60.5349 52.6839 60.5349 53.832V61H57.8818V48.1767H60.5349V49.6429C60.9693 49.1154 61.5201 48.7042 62.1873 48.4095C62.8699 48.1147 63.5914 47.9673 64.3516 47.9673ZM78.3715 50.3411H75.9976V61H73.3213V50.3411H71.8085V48.1767H73.3213V47.2691C73.3213 45.7952 73.7092 44.7246 74.4849 44.0575C75.2762 43.3748 76.5096 43.0335 78.1853 43.0335V45.2444C77.3785 45.2444 76.8122 45.3995 76.4864 45.7098C76.1605 46.0046 75.9976 46.5244 75.9976 47.2691V48.1767H78.3715V50.3411ZM86.2849 61.2095C85.0747 61.2095 83.9809 60.9379 83.0035 60.3949C82.026 59.8364 81.258 59.0606 80.6995 58.0676C80.1409 57.0592 79.8616 55.8955 79.8616 54.5767C79.8616 53.2735 80.1487 52.1176 80.7227 51.1091C81.2968 50.1006 82.0803 49.3248 83.0733 48.7818C84.0662 48.2388 85.1756 47.9673 86.4013 47.9673C87.627 47.9673 88.7363 48.2388 89.7293 48.7818C90.7222 49.3248 91.5058 50.1006 92.0798 51.1091C92.6539 52.1176 92.9409 53.2735 92.9409 54.5767C92.9409 55.88 92.6461 57.0359 92.0565 58.0444C91.467 59.0528 90.6602 59.8364 89.6362 60.3949C88.6277 60.9379 87.5106 61.2095 86.2849 61.2095ZM86.2849 58.9055C86.9676 58.9055 87.6037 58.7425 88.1933 58.4167C88.7984 58.0909 89.2871 57.6022 89.6595 56.9505C90.0318 56.2989 90.218 55.5076 90.218 54.5767C90.218 53.6458 90.0396 52.8623 89.6827 52.2262C89.3259 51.5745 88.8527 51.0858 88.2631 50.76C87.6735 50.4342 87.0374 50.2713 86.3547 50.2713C85.6721 50.2713 85.0359 50.4342 84.4464 50.76C83.8723 51.0858 83.4146 51.5745 83.0733 52.2262C82.7319 52.8623 82.5613 53.6458 82.5613 54.5767C82.5613 55.9576 82.9104 57.0281 83.6085 57.7884C84.3222 58.5331 85.2144 58.9055 86.2849 58.9055ZM98.2167 50.0385C98.6046 49.3869 99.1166 48.8827 99.7527 48.5258C100.404 48.1535 101.172 47.9673 102.057 47.9673V50.7135H101.382C100.342 50.7135 99.551 50.9772 99.008 51.5047C98.4805 52.0322 98.2167 52.9476 98.2167 54.2509V61H95.5636V48.1767H98.2167V50.0385ZM120.018 47.9673C121.027 47.9673 121.927 48.1767 122.718 48.5956C123.525 49.0145 124.153 49.6352 124.603 50.4575C125.069 51.2798 125.301 52.2727 125.301 53.4364V61H122.671V53.832C122.671 52.6839 122.384 51.8073 121.81 51.2022C121.236 50.5816 120.453 50.2713 119.46 50.2713C118.467 50.2713 117.676 50.5816 117.086 51.2022C116.512 51.8073 116.225 52.6839 116.225 53.832V61H113.595V53.832C113.595 52.6839 113.308 51.8073 112.734 51.2022C112.16 50.5816 111.376 50.2713 110.383 50.2713C109.39 50.2713 108.599 50.5816 108.01 51.2022C107.436 51.8073 107.149 52.6839 107.149 53.832V61H104.495V48.1767H107.149V49.6429C107.583 49.1154 108.134 48.7042 108.801 48.4095C109.468 48.1147 110.182 47.9673 110.942 47.9673C111.966 47.9673 112.881 48.1845 113.688 48.6189C114.495 49.0533 115.116 49.6817 115.55 50.504C115.938 49.7282 116.543 49.1154 117.365 48.6655C118.188 48.2 119.072 47.9673 120.018 47.9673ZM127.793 54.5302C127.793 53.2424 128.057 52.1021 128.584 51.1091C129.127 50.1161 129.856 49.3481 130.772 48.8051C131.703 48.2465 132.727 47.9673 133.844 47.9673C134.852 47.9673 135.729 48.169 136.474 48.5724C137.234 48.9602 137.839 49.449 138.289 50.0385V48.1767H140.965V61H138.289V59.0916C137.839 59.6967 137.226 60.201 136.45 60.6044C135.675 61.0078 134.79 61.2095 133.797 61.2095C132.696 61.2095 131.687 60.9302 130.772 60.3716C129.856 59.7976 129.127 59.0063 128.584 57.9978C128.057 56.9738 127.793 55.8179 127.793 54.5302ZM138.289 54.5767C138.289 53.6924 138.103 52.9244 137.73 52.2727C137.374 51.6211 136.9 51.1246 136.311 50.7833C135.721 50.4419 135.085 50.2713 134.402 50.2713C133.72 50.2713 133.084 50.4419 132.494 50.7833C131.904 51.1091 131.423 51.5978 131.051 52.2495C130.694 52.8856 130.516 53.6458 130.516 54.5302C130.516 55.4145 130.694 56.1903 131.051 56.8575C131.423 57.5246 131.904 58.0366 132.494 58.3935C133.099 58.7348 133.735 58.9055 134.402 58.9055C135.085 58.9055 135.721 58.7348 136.311 58.3935C136.9 58.0521 137.374 57.5556 137.73 56.904C138.103 56.2368 138.289 55.4611 138.289 54.5767ZM147.545 50.3411V57.4393C147.545 57.9202 147.654 58.2693 147.871 58.4865C148.104 58.6882 148.492 58.7891 149.035 58.7891H150.664V61H148.569C147.375 61 146.459 60.7207 145.823 60.1622C145.187 59.6036 144.869 58.696 144.869 57.4393V50.3411H143.356V48.1767H144.869V44.9884H147.545V48.1767H150.664V50.3411H147.545ZM154.459 46.4778C153.978 46.4778 153.575 46.3149 153.249 45.9891C152.923 45.6633 152.76 45.2599 152.76 44.7789C152.76 44.2979 152.923 43.8945 153.249 43.5687C153.575 43.2429 153.978 43.08 154.459 43.08C154.924 43.08 155.32 43.2429 155.646 43.5687C155.972 43.8945 156.135 44.2979 156.135 44.7789C156.135 45.2599 155.972 45.6633 155.646 45.9891C155.32 46.3149 154.924 46.4778 154.459 46.4778ZM155.762 48.1767V61H153.109V48.1767H155.762ZM158.361 54.5302C158.361 53.2424 158.625 52.1021 159.152 51.1091C159.695 50.1161 160.425 49.3481 161.34 48.8051C162.271 48.2465 163.303 47.9673 164.435 47.9673C165.428 47.9673 166.305 48.169 167.065 48.5724C167.841 48.9758 168.438 49.4645 168.857 50.0385V48.1767H171.533V67.0975H168.857V59.1382C168.438 59.7122 167.833 60.201 167.042 60.6044C166.251 61.0078 165.351 61.2095 164.342 61.2095C163.241 61.2095 162.232 60.9302 161.317 60.3716C160.417 59.7976 159.695 59.0063 159.152 57.9978C158.625 56.9738 158.361 55.8179 158.361 54.5302ZM168.857 54.5767C168.857 53.6924 168.671 52.9244 168.299 52.2727C167.942 51.6211 167.468 51.1246 166.879 50.7833C166.289 50.4419 165.653 50.2713 164.971 50.2713C164.288 50.2713 163.652 50.4419 163.062 50.7833C162.473 51.1091 161.992 51.5978 161.619 52.2495C161.262 52.8856 161.084 53.6458 161.084 54.5302C161.084 55.4145 161.262 56.1903 161.619 56.8575C161.992 57.5246 162.473 58.0366 163.062 58.3935C163.667 58.7348 164.303 58.9055 164.971 58.9055C165.653 58.9055 166.289 58.7348 166.879 58.3935C167.468 58.0521 167.942 57.5556 168.299 56.904C168.671 56.2368 168.857 55.4611 168.857 54.5767ZM186.631 48.1767V61H183.978V59.4873C183.559 60.0148 183.008 60.4337 182.326 60.744C181.659 61.0388 180.945 61.1862 180.185 61.1862C179.176 61.1862 178.269 60.9767 177.462 60.5578C176.671 60.1389 176.042 59.5183 175.577 58.696C175.127 57.8737 174.902 56.8807 174.902 55.7171V48.1767H177.532V55.3215C177.532 56.4696 177.819 57.3539 178.393 57.9745C178.967 58.5796 179.75 58.8822 180.743 58.8822C181.736 58.8822 182.52 58.5796 183.094 57.9745C183.683 57.3539 183.978 56.4696 183.978 55.3215V48.1767H186.631ZM201.885 54.2742C201.885 54.7552 201.854 55.1896 201.791 55.5775H191.994C192.071 56.6015 192.451 57.4238 193.134 58.0444C193.817 58.665 194.654 58.9753 195.647 58.9753C197.075 58.9753 198.083 58.3779 198.673 57.1833H201.535C201.148 58.3624 200.442 59.3321 199.418 60.0924C198.409 60.8371 197.152 61.2095 195.647 61.2095C194.422 61.2095 193.32 60.9379 192.343 60.3949C191.381 59.8364 190.621 59.0606 190.062 58.0676C189.519 57.0592 189.247 55.8955 189.247 54.5767C189.247 53.2579 189.511 52.1021 190.039 51.1091C190.582 50.1006 191.334 49.3248 192.296 48.7818C193.274 48.2388 194.391 47.9673 195.647 47.9673C196.858 47.9673 197.936 48.231 198.882 48.7585C199.829 49.2861 200.566 50.0308 201.093 50.9927C201.621 51.9392 201.885 53.033 201.885 54.2742ZM199.115 53.4364C199.1 52.4589 198.75 51.6754 198.068 51.0858C197.385 50.4962 196.54 50.2015 195.531 50.2015C194.616 50.2015 193.832 50.4962 193.181 51.0858C192.529 51.6599 192.141 52.4434 192.017 53.4364H199.115Z" fill="white"/>
<path d="M29.5997 53.505H18.9459L14.7609 62.6503L10.3809 53.5116H0.0956182C0.0659226 53.4849 0.0463489 53.4488 0.0402002 53.4093C0.0340514 53.3699 0.0417084 53.3295 0.0618724 53.295C0.530622 52.5544 0.905615 51.7594 1.31155 50.985C1.57405 50.4863 1.8628 49.9988 2.11593 49.4944C2.17499 49.3763 2.29031 49.2741 2.18531 49.1147C2.13656 49.0397 2.22187 48.9338 2.26968 48.9085C2.65031 48.7022 2.76469 48.301 2.9475 47.9654C3.64969 46.6716 4.31718 45.3591 5.01 44.0597C5.71125 42.7416 6.43218 41.4347 7.13436 40.1157C7.83655 38.7966 8.51812 37.4907 9.20999 36.1838C9.44156 35.7441 9.67874 35.3054 9.91124 34.8713C9.99603 34.7331 10.0477 34.5771 10.0622 34.4157C10.8798 32.8993 11.6923 31.3803 12.4997 29.8585C13.0042 29.1562 13.4113 28.389 13.71 27.5775C14.0972 27.0576 14.4228 26.4944 14.6803 25.8994C14.8784 26.2039 15.059 26.5194 15.2212 26.8444C15.6309 27.5316 15.9984 28.2441 16.3838 28.9435C16.5947 29.326 16.8178 29.7179 17.0109 30.1182C17.2425 30.5972 17.5331 31.0557 17.7778 31.5244C18.0084 31.9688 18.2578 32.4066 18.4894 32.851C18.7209 33.2954 18.9919 33.72 19.2159 34.1579C19.8666 35.4272 20.5537 36.6769 21.2306 37.9313C23.9625 42.99 26.7 48.0457 29.4431 53.0982C29.4928 53.1919 29.55 53.2782 29.6034 53.3691L29.5997 53.505Z" fill="white"/>
<path d="M9.93938 18.9487L13.8769 22.5656C13.5872 22.8984 13.2572 23.1694 12.9572 23.4675C12.3994 24.0225 11.7919 24.5222 11.2453 25.0912C10.9059 25.4447 10.4953 25.739 10.1719 26.1225C10.1125 26.1892 10.0341 26.2359 9.94715 26.2564C9.86024 26.2769 9.76913 26.27 9.68625 26.2369C9.49801 26.1943 9.31387 26.1353 9.13595 26.0606C8.69964 25.8387 8.24399 25.657 7.77469 25.5178C7.12406 25.2815 6.48657 25.0031 5.82376 24.7987C5.48574 24.646 5.13738 24.5172 4.78126 24.4134L0 22.5881C3.38531 21.3544 6.66469 20.1131 9.93751 18.9487" fill="white"/>
<path d="M18.3206 17.8541C18.27 18.0866 18.0806 18.1756 17.9588 18.3228C17.5046 18.7797 17.0767 19.2621 16.6772 19.7675C16.5984 19.8875 16.4334 19.9484 16.3463 20.0656C15.9713 20.5747 15.436 20.9422 15.0985 21.4878C14.9701 21.6327 14.8221 21.7589 14.6588 21.8628L10.9603 17.915L14.6785 8L18.3206 17.8541Z" fill="white"/>
<path d="M19.3894 18.876C21.0356 19.5004 22.6781 20.1304 24.3263 20.7463C25.9416 21.35 27.5616 21.9388 29.1797 22.5341L29.1919 22.6213L19.3819 26.241L15.4669 22.5847L19.3894 18.8797" fill="white"/>
</svg>
