<svg xmlns="http://www.w3.org/2000/svg" width="256" height="256" viewBox="0 0 16 16" fill="#002752"><path fill="#002752" d="M8 1a1 1 0 0 1 1-1h6a1 1 0 0 1 1 1v14a1 1 0 0 1-1 1H9a1 1 0 0 1-1-1V1Zm1 13.5a.5.5 0 1 0 1 0a.5.5 0 0 0-1 0Zm2 0a.5.5 0 1 0 1 0a.5.5 0 0 0-1 0ZM9.5 1a.5.5 0 0 0 0 1h5a.5.5 0 0 0 0-1h-5ZM9 3.5a.5.5 0 0 0 .5.5h5a.5.5 0 0 0 0-1h-5a.5.5 0 0 0-.5.5ZM1.5 2A1.5 1.5 0 0 0 0 3.5v7A1.5 1.5 0 0 0 1.5 12H6v2h-.5a.5.5 0 0 0 0 1H7v-4H1.5a.5.5 0 0 1-.5-.5v-7a.5.5 0 0 1 .5-.5H7V2H1.5Z"/></svg>