<svg width="200" height="200" viewBox="0 0 200 200" fill="none" xmlns="http://www.w3.org/2000/svg">
<g clip-path="url(#clip0_4043_216)">
<path d="M100 12.5C100 9.18479 101.317 6.00537 103.661 3.66117C106.005 1.31696 109.185 0 112.5 0L187.5 0C190.815 0 193.995 1.31696 196.339 3.66117C198.683 6.00537 200 9.18479 200 12.5V187.5C200 190.815 198.683 193.995 196.339 196.339C193.995 198.683 190.815 200 187.5 200H112.5C109.185 200 106.005 198.683 103.661 196.339C101.317 193.995 100 190.815 100 187.5V12.5ZM112.5 181.25C112.5 182.908 113.158 184.497 114.331 185.669C115.503 186.842 117.092 187.5 118.75 187.5C120.408 187.5 121.997 186.842 123.169 185.669C124.342 184.497 125 182.908 125 181.25C125 179.592 124.342 178.003 123.169 176.831C121.997 175.658 120.408 175 118.75 175C117.092 175 115.503 175.658 114.331 176.831C113.158 178.003 112.5 179.592 112.5 181.25ZM137.5 181.25C137.5 182.908 138.158 184.497 139.331 185.669C140.503 186.842 142.092 187.5 143.75 187.5C145.408 187.5 146.997 186.842 148.169 185.669C149.342 184.497 150 182.908 150 181.25C150 179.592 149.342 178.003 148.169 176.831C146.997 175.658 145.408 175 143.75 175C142.092 175 140.503 175.658 139.331 176.831C138.158 178.003 137.5 179.592 137.5 181.25ZM118.75 12.5C117.092 12.5 115.503 13.1585 114.331 14.3306C113.158 15.5027 112.5 17.0924 112.5 18.75C112.5 20.4076 113.158 21.9973 114.331 23.1694C115.503 24.3415 117.092 25 118.75 25H181.25C182.908 25 184.497 24.3415 185.669 23.1694C186.842 21.9973 187.5 20.4076 187.5 18.75C187.5 17.0924 186.842 15.5027 185.669 14.3306C184.497 13.1585 182.908 12.5 181.25 12.5H118.75ZM112.5 43.75C112.5 45.4076 113.158 46.9973 114.331 48.1694C115.503 49.3415 117.092 50 118.75 50H181.25C182.908 50 184.497 49.3415 185.669 48.1694C186.842 46.9973 187.5 45.4076 187.5 43.75C187.5 42.0924 186.842 40.5027 185.669 39.3306C184.497 38.1585 182.908 37.5 181.25 37.5H118.75C117.092 37.5 115.503 38.1585 114.331 39.3306C113.158 40.5027 112.5 42.0924 112.5 43.75ZM18.75 25C13.7772 25 9.00805 26.9754 5.49175 30.4917C1.97544 34.0081 0 38.7772 0 43.75L0 131.25C0 136.223 1.97544 140.992 5.49175 144.508C9.00805 148.025 13.7772 150 18.75 150H75V175H68.75C67.0924 175 65.5027 175.658 64.3306 176.831C63.1585 178.003 62.5 179.592 62.5 181.25C62.5 182.908 63.1585 184.497 64.3306 185.669C65.5027 186.842 67.0924 187.5 68.75 187.5H87.5V137.5H18.75C17.0924 137.5 15.5027 136.842 14.3306 135.669C13.1585 134.497 12.5 132.908 12.5 131.25V43.75C12.5 42.0924 13.1585 40.5027 14.3306 39.3306C15.5027 38.1585 17.0924 37.5 18.75 37.5H87.5V25H18.75Z" fill="#002752"/>
<path d="M178.993 147.078H158.84L150.924 164.377L142.639 147.09H123.183C123.127 147.04 123.09 146.971 123.078 146.897C123.067 146.822 123.081 146.746 123.119 146.681C124.006 145.28 124.715 143.776 125.483 142.311C125.98 141.367 126.526 140.445 127.005 139.491C127.116 139.268 127.334 139.074 127.136 138.773C127.044 138.631 127.205 138.431 127.295 138.383C128.015 137.993 128.232 137.234 128.578 136.599C129.906 134.152 131.169 131.669 132.479 129.211C133.806 126.718 135.169 124.245 136.498 121.75C137.826 119.255 139.115 116.785 140.424 114.313C140.862 113.481 141.311 112.651 141.75 111.83C141.911 111.569 142.008 111.274 142.036 110.968C143.582 108.1 145.119 105.226 146.647 102.348C147.601 101.019 148.371 99.5679 148.936 98.033C149.669 97.0494 150.285 95.9842 150.772 94.8586C151.146 95.4347 151.488 96.0315 151.795 96.6462C152.57 97.9461 153.265 99.2939 153.994 100.617C154.393 101.34 154.815 102.082 155.18 102.839C155.618 103.745 156.168 104.612 156.631 105.499C157.067 106.34 157.539 107.168 157.977 108.008C158.415 108.849 158.927 109.652 159.351 110.48C160.582 112.882 161.882 115.245 163.162 117.618C168.33 127.187 173.508 136.751 178.697 146.308C178.791 146.485 178.899 146.649 179 146.821L178.993 147.078Z" fill="white"/>
<path d="M141.801 81.7104L149.25 88.5522C148.702 89.1817 148.077 89.6942 147.51 90.2582C146.455 91.308 145.306 92.2532 144.272 93.3297C143.63 93.9982 142.853 94.5551 142.241 95.2804C142.129 95.4066 141.981 95.495 141.816 95.5337C141.652 95.5725 141.479 95.5595 141.323 95.4968C140.967 95.4163 140.618 95.3047 140.282 95.1634C139.456 94.7436 138.594 94.3999 137.707 94.1366C136.476 93.6897 135.27 93.163 134.016 92.7764C133.377 92.4874 132.718 92.2438 132.044 92.0475L123 88.5947C129.404 86.261 135.607 83.913 141.798 81.7104" fill="white"/>
<path d="M157.657 79.6401C157.561 80.0799 157.203 80.2483 156.973 80.5268C156.114 81.3911 155.304 82.3035 154.548 83.2596C154.4 83.4865 154.087 83.6018 153.922 83.8235C153.213 84.7864 152.201 85.4816 151.562 86.5137C151.319 86.7877 151.039 87.0265 150.73 87.2231L143.734 79.7553L150.768 61L157.657 79.6401Z" fill="white"/>
<path d="M159.678 81.573C162.792 82.7541 165.899 83.9458 169.016 85.1109C172.072 86.253 175.136 87.3667 178.197 88.4928L178.22 88.6577L159.663 95.5047L152.258 88.5885L159.678 81.5801" fill="white"/>
</g>
<defs>
<clipPath id="clip0_4043_216">
<rect width="200" height="200" fill="white"/>
</clipPath>
</defs>
</svg>
