<svg width="33" height="33" viewBox="0 0 33 33" fill="none" xmlns="http://www.w3.org/2000/svg">
<path fill-rule="evenodd" clip-rule="evenodd" d="M19.6341 2.959C19.1253 2.75 18.4791 2.75 17.1879 2.75C15.8968 2.75 15.2506 2.75 14.7418 2.959C14.0646 3.23704 13.5255 3.77268 13.2431 4.44812C13.1138 4.75475 13.0643 5.11363 13.0437 5.63475C13.0345 6.01233 12.9292 6.38133 12.7377 6.70686C12.5462 7.0324 12.2748 7.3037 11.9492 7.49513C11.6175 7.67952 11.2446 7.7772 10.865 7.77912C10.4855 7.78105 10.1116 7.68715 9.77806 7.50612C9.31331 7.26137 8.97643 7.12663 8.64368 7.08262C7.9157 6.98704 7.17941 7.18272 6.59493 7.62712C6.15768 7.95988 5.83456 8.51538 5.18968 9.625C4.54343 10.7346 4.22168 11.2887 4.14881 11.8319C4.05256 12.5551 4.25056 13.2866 4.69881 13.8655C4.90231 14.1295 5.18968 14.3509 5.63381 14.6286C6.28968 15.037 6.71043 15.7327 6.71043 16.5C6.71043 17.2673 6.28968 17.963 5.63518 18.37C5.18968 18.6491 4.90231 18.8705 4.69743 19.1345C4.47617 19.4204 4.31377 19.7474 4.2196 20.0964C4.12543 20.4455 4.10137 20.8097 4.14881 21.1681C4.22168 21.7099 4.54343 22.2654 5.18968 23.375C5.83593 24.4846 6.15768 25.0387 6.59493 25.3729C7.17793 25.817 7.91493 26.0123 8.64368 25.9174C8.97643 25.8734 9.31331 25.7386 9.77806 25.4939C10.1118 25.3126 10.4859 25.2186 10.8657 25.2205C11.2455 25.2224 11.6187 25.3202 11.9506 25.5049C12.6188 25.8899 13.0148 26.598 13.0437 27.3652C13.0643 27.8878 13.1138 28.2452 13.2431 28.5519C13.5236 29.2256 14.0626 29.7619 14.7418 30.041C15.2506 30.25 15.8968 30.25 17.1879 30.25C18.4791 30.25 19.1253 30.25 19.6341 30.041C20.3113 29.763 20.8504 29.2273 21.1328 28.5519C21.2621 28.2452 21.3116 27.8878 21.3322 27.3652C21.3597 26.598 21.7571 25.8885 22.4267 25.5049C22.7584 25.3205 23.1313 25.2228 23.5108 25.2209C23.8904 25.219 24.2642 25.3129 24.5978 25.4939C25.0626 25.7386 25.3994 25.8734 25.7322 25.9174C26.4609 26.0136 27.1979 25.817 27.7809 25.3729C28.2182 25.0401 28.5413 24.4846 29.1862 23.375C29.8324 22.2654 30.1542 21.7113 30.2271 21.1681C30.2743 20.8096 30.25 20.4453 30.1556 20.0963C30.0612 19.7472 29.8986 19.4203 29.6771 19.1345C29.4736 18.8705 29.1862 18.6491 28.7421 18.3714C28.0862 17.963 27.6654 17.2673 27.6654 16.5C27.6654 15.7327 28.0862 15.037 28.7407 14.63C29.1862 14.3509 29.4736 14.1295 29.6784 13.8655C29.8997 13.5796 30.0621 13.2526 30.1563 12.9036C30.2504 12.5545 30.2745 12.1903 30.2271 11.8319C30.1542 11.2901 29.8324 10.7346 29.1862 9.625C28.5399 8.51538 28.2182 7.96125 27.7809 7.62712C27.1965 7.18272 26.4602 6.98704 25.7322 7.08262C25.3994 7.12663 25.0626 7.26137 24.5978 7.50612C24.2641 7.68739 23.8899 7.78142 23.5101 7.7795C23.1304 7.77758 22.7572 7.67976 22.4253 7.49513C22.1 7.30353 21.8289 7.03215 21.6376 6.70663C21.4463 6.38111 21.3412 6.0122 21.3322 5.63475C21.3116 5.11225 21.2621 4.75475 21.1328 4.44812C20.993 4.11364 20.7887 3.80996 20.5316 3.55445C20.2744 3.29895 19.9694 3.09661 19.6341 2.959ZM17.1879 20.625C19.4842 20.625 21.3446 18.7784 21.3446 16.5C21.3446 14.2216 19.4828 12.375 17.1879 12.375C14.8917 12.375 13.0313 14.2216 13.0313 16.5C13.0313 18.7784 14.8931 20.625 17.1879 20.625Z" fill="#002752"/>
</svg>
