<svg width="19" height="19" viewBox="0 0 19 19" fill="none" xmlns="http://www.w3.org/2000/svg">
<path d="M8.499 7.50007L8.5 19.0001H3.25C2.42003 19.0001 1.62147 18.6827 1.0181 18.1128C0.41472 17.5429 0.0522448 16.7637 0.00500011 15.9351L0 15.7521V7.49907H8.499V7.50007ZM9.999 13.4991H18.5V15.7521C18.5 16.614 18.1576 17.4407 17.5481 18.0502C16.9386 18.6597 16.112 19.0021 15.25 19.0021L10 19.0001L9.999 13.4991ZM15.251 0.49907C16.081 0.499002 16.8795 0.816471 17.4829 1.38638C18.0863 1.95629 18.4488 2.73544 18.496 3.56407L18.501 3.74807L18.5 11.9991H9.999L10 0.49807H15.251V0.49907ZM8.5 0.49707L8.499 6.00007H0V3.74807C0 2.88612 0.34241 2.05947 0.951903 1.44997C1.5614 0.84048 2.38805 0.49807 3.25 0.49807L8.5 0.49707Z" fill="#0066CC"/>
</svg>
